<svg width="512" height="512" viewBox="0 0 512 512" fill="none" xmlns="http://www.w3.org/2000/svg">
  <rect width="512" height="512" fill="#070708"/>
  <path d="M256 128C194.144 128 144 178.144 144 240V384L172 360L200 384L228 360L256 384L284 360L312 384L340 360L368 384V240C368 178.144 317.856 128 256 128ZM216 224C224.837 224 232 231.163 232 240C232 248.837 224.837 256 216 256C207.163 256 200 248.837 200 240C200 231.163 207.163 224 216 224ZM296 224C304.837 224 312 231.163 312 240C312 248.837 304.837 256 296 256C287.163 256 280 248.837 280 240C280 231.163 287.163 224 296 224Z" fill="#5B6AF0"/>
</svg>
